<svg xmlns="http://www.w3.org/2000/svg" viewBox="0 0 512 512" width="512" height="512">
  <rect width="512" height="512" fill="#ffffff"/>
  <g transform="translate(256, 256)">
    <!-- Musical note icon in blue -->
    <path d="M-30,-120 L-30,60 C-30,85 -50,100 -70,100 C-90,100 -110,85 -110,60 C-110,35 -90,20 -70,20 C-60,20 -50,23 -42,28 L-42,-120 L50,-100 L50,80 C50,105 30,120 10,120 C-10,120 -30,105 -30,80 C-30,55 -10,40 10,40 C20,40 30,43 38,48 L38,-80 Z"
          fill="#3b82f6"
          stroke="#3b82f6"
          stroke-width="8"/>
  </g>
</svg>
